<svg id="Capa_1" enable-background="new 0 0 512 512" viewBox="0 0 512 512" xmlns="http://www.w3.org/2000/svg" xmlns:xlink="http://www.w3.org/1999/xlink"><linearGradient id="lg1"><stop offset="0" stop-color="#f89580"/><stop offset="1" stop-color="#c4573a"/></linearGradient><linearGradient id="SVGID_1_" gradientUnits="userSpaceOnUse" x1="57.171" x2="406.981" xlink:href="#lg1" y1="313.044" y2="313.044"/><linearGradient id="SVGID_00000038409680365732128850000005217221309527729578_" gradientUnits="userSpaceOnUse" x1="79.262" x2="79.262" xlink:href="#lg1" y1="217.47" y2="208.535"/><linearGradient id="SVGID_00000017489058281791478320000003880205695508369819_" gradientUnits="userSpaceOnUse" x1="117.758" x2="117.758" xlink:href="#lg1" y1="217.47" y2="208.535"/><linearGradient id="SVGID_00000110453926685312274660000013532212114343528580_" gradientUnits="userSpaceOnUse" x1="156.253" x2="156.253" xlink:href="#lg1" y1="217.47" y2="208.535"/><linearGradient id="SVGID_00000049188444285071947400000009250316821673347201_" gradientUnits="userSpaceOnUse" x1="194.748" x2="194.748" xlink:href="#lg1" y1="217.47" y2="208.535"/><linearGradient id="SVGID_00000176759694025954969910000002503129840403357591_" gradientUnits="userSpaceOnUse" x1="233.243" x2="233.243" xlink:href="#lg1" y1="217.47" y2="208.535"/><linearGradient id="SVGID_00000004510792643416808210000015324291662312921728_" gradientUnits="userSpaceOnUse" x1="271.738" x2="271.738" xlink:href="#lg1" y1="217.47" y2="208.535"/><linearGradient id="SVGID_00000008138297680368893890000000487643223233965201_" gradientUnits="userSpaceOnUse" x1="310.233" x2="310.233" xlink:href="#lg1" y1="217.47" y2="208.535"/><linearGradient id="SVGID_00000142864631192301034290000000805094849366040505_" gradientUnits="userSpaceOnUse" x1="348.728" x2="348.728" xlink:href="#lg1" y1="217.47" y2="208.535"/><linearGradient id="SVGID_00000111913956325945099450000005762399360601387702_" gradientUnits="userSpaceOnUse" x1="387.223" x2="387.223" xlink:href="#lg1" y1="217.47" y2="208.535"/><linearGradient id="SVGID_00000163044017955897866370000006822140384958353824_" gradientUnits="userSpaceOnUse" x1="425.718" x2="425.718" xlink:href="#lg1" y1="217.47" y2="208.535"/><linearGradient id="SVGID_00000039834109884303090400000002242397841244684431_" gradientUnits="userSpaceOnUse" x1="79.262" x2="79.262" xlink:href="#lg1" y1="491.523" y2="482.588"/><linearGradient id="SVGID_00000094585416985109668720000009325766912437179052_" gradientUnits="userSpaceOnUse" x1="117.758" x2="117.758" xlink:href="#lg1" y1="491.523" y2="482.588"/><linearGradient id="SVGID_00000170982284602395849130000016365010783507055778_" gradientUnits="userSpaceOnUse" x1="156.253" x2="156.253" xlink:href="#lg1" y1="491.523" y2="482.588"/><linearGradient id="SVGID_00000060000818510234860270000006144388625212449443_" gradientUnits="userSpaceOnUse" x1="194.748" x2="194.748" xlink:href="#lg1" y1="491.523" y2="482.588"/><linearGradient id="SVGID_00000057117686287454670220000011038726967972648379_" gradientUnits="userSpaceOnUse" x1="233.243" x2="233.243" xlink:href="#lg1" y1="491.523" y2="482.588"/><linearGradient id="SVGID_00000101064503053360682210000002025810907677358987_" gradientUnits="userSpaceOnUse" x1="271.738" x2="271.738" xlink:href="#lg1" y1="491.523" y2="482.588"/><linearGradient id="SVGID_00000158744697004527370540000012018934694204531130_" gradientUnits="userSpaceOnUse" x1="310.233" x2="310.233" xlink:href="#lg1" y1="491.523" y2="482.588"/><linearGradient id="SVGID_00000066476166036521240090000000691275313237260472_" gradientUnits="userSpaceOnUse" x1="348.728" x2="348.728" xlink:href="#lg1" y1="491.523" y2="482.588"/><linearGradient id="SVGID_00000145025965002331605300000009435530380323179685_" gradientUnits="userSpaceOnUse" x1="387.223" x2="387.223" xlink:href="#lg1" y1="491.523" y2="482.588"/><linearGradient id="SVGID_00000055675789589827737720000009872398028654908075_" gradientUnits="userSpaceOnUse" x1="425.718" x2="425.718" xlink:href="#lg1" y1="491.523" y2="482.588"/><linearGradient id="lg2"><stop offset="0" stop-color="#c4573a" stop-opacity="0"/><stop offset=".235" stop-color="#be5539" stop-opacity=".235"/><stop offset=".539" stop-color="#ae4e35" stop-opacity=".539"/><stop offset=".8794" stop-color="#934330" stop-opacity=".879"/><stop offset="1" stop-color="#883f2e"/></linearGradient><linearGradient id="SVGID_00000096024093992222430420000017513190695187890060_" gradientUnits="userSpaceOnUse" x1="378.351" x2="448.007" xlink:href="#lg2" y1="313.044" y2="313.044"/><linearGradient id="SVGID_00000132077388830423038660000013950027286991370891_" gradientUnits="userSpaceOnUse" x1="182.918" x2="264.364" xlink:href="#lg2" y1="49.334" y2="235.692"/><linearGradient id="SVGID_00000137133151018577318140000013373393442827942278_" gradientUnits="userSpaceOnUse" x1="336.938" x2="390.513" xlink:href="#lg2" y1="154.419" y2="154.419"/><linearGradient id="SVGID_00000171701293938593611610000004813549790478642049_" gradientUnits="userSpaceOnUse" x1="393.075" x2="363.163" xlink:href="#lg2" y1="154.419" y2="154.419"/><linearGradient id="SVGID_00000084500270718566137080000003357613595816211350_" gradientUnits="userSpaceOnUse" x1="252.49" x2="252.49" xlink:href="#lg2" y1="430.757" y2="510.87"/><linearGradient id="SVGID_00000150102223172678205880000016252772289973775802_" gradientUnits="userSpaceOnUse" x1="240.235" x2="240.235" xlink:href="#lg2" y1="145.775" y2="192.6"/><linearGradient id="SVGID_00000174590163700016376540000017953207540930018739_" gradientUnits="userSpaceOnUse" x1="405.182" x2="389.997" xlink:href="#lg2" y1="506.871" y2="391.375"/><linearGradient id="SVGID_00000036957627620720810790000009566676178449666688_" gradientUnits="userSpaceOnUse" x1="380.963" x2="392.62" xlink:href="#lg1" y1="297.889" y2="400.348"/><linearGradient id="SVGID_00000150792497260419428000000009515627254409573261_" gradientUnits="userSpaceOnUse" x1="384.179" x2="384.179" xlink:href="#lg2" y1="356.828" y2="391.322"/><linearGradient id="SVGID_00000134222418601955516560000012859383756896240803_" gradientUnits="userSpaceOnUse" x1="415.162" x2="461.279" xlink:href="#lg2" y1="343.944" y2="343.944"/><linearGradient id="SVGID_00000088126588358129211140000007327489526774080681_" gradientUnits="userSpaceOnUse" x1="389.528" x2="362.533" xlink:href="#lg2" y1="378.962" y2="352.274"/><linearGradient id="SVGID_00000134248853530453880580000013987039770998416285_" gradientUnits="userSpaceOnUse" x1="338.691" x2="366.817" y1="328.352" y2="356.478"><stop offset="0" stop-color="#5a5a5a"/><stop offset="1" stop-color="#444"/></linearGradient><linearGradient id="lg3"><stop offset="0" stop-color="#433f43" stop-opacity="0"/><stop offset="1" stop-color="#1a1a1a"/></linearGradient><linearGradient id="SVGID_00000069393132497402871030000010757320859871291070_" gradientUnits="userSpaceOnUse" x1="354.282" x2="354.282" xlink:href="#lg3" y1="344.266" y2="374.251"/><linearGradient id="SVGID_00000084507731772744779050000007853052313799852421_" gradientTransform="matrix(.707 -.707 .707 .707 1120.147 242.45)" gradientUnits="userSpaceOnUse" x1="-613.315" x2="-613.315" xlink:href="#lg3" y1="-469.459" y2="-437.896"/><linearGradient id="lg4"><stop offset="0" stop-color="#bbec6c"/><stop offset=".2886" stop-color="#abdc59"/><stop offset=".866" stop-color="#82b32a"/><stop offset="1" stop-color="#78a91f"/></linearGradient><linearGradient id="SVGID_00000058548366725989704620000001256620599857615030_" gradientUnits="userSpaceOnUse" x1="218.86" x2="333.196" xlink:href="#lg4" y1="24.873" y2="201.172"/><linearGradient id="lg5"><stop offset="0" stop-color="#334c0f" stop-opacity="0"/><stop offset=".3197" stop-color="#344c12" stop-opacity=".32"/><stop offset=".5654" stop-color="#374a1c" stop-opacity=".565"/><stop offset=".7856" stop-color="#3c482c" stop-opacity=".786"/><stop offset=".9909" stop-color="#444443" stop-opacity=".991"/><stop offset="1" stop-color="#444"/></linearGradient><linearGradient id="SVGID_00000009553388970682347460000016970502260301738626_" gradientUnits="userSpaceOnUse" x1="205.362" x2="209.504" xlink:href="#lg5" y1="-40.207" y2="109.34"/><linearGradient id="SVGID_00000170991023111847644320000014420317051436933008_" gradientUnits="userSpaceOnUse" x1="332.943" x2="337.084" xlink:href="#lg5" y1="-43.74" y2="105.807"/><linearGradient id="SVGID_00000166660960005809254180000009200776794010321563_" gradientUnits="userSpaceOnUse" x1="137.501" x2="334.711" xlink:href="#lg5" y1="-27.438" y2="204.12"/><linearGradient id="SVGID_00000161592609447694853620000007635959381626670512_" gradientUnits="userSpaceOnUse" x1="330.863" x2="370.245" xlink:href="#lg5" y1="97.377" y2="97.377"/><linearGradient id="SVGID_00000096746423870257754870000008253443795787168698_" gradientUnits="userSpaceOnUse" x1="270.07" x2="270.07" xlink:href="#lg5" y1="146.272" y2="199.214"/><linearGradient id="SVGID_00000016035728476257400010000009006884321922573456_" gradientUnits="userSpaceOnUse" x1="376.05" x2="288.163" xlink:href="#lg5" y1="126.474" y2="126.474"/><linearGradient id="SVGID_00000006672759718546779340000010188839728325193868_" gradientUnits="userSpaceOnUse" x1="159.755" x2="254.851" xlink:href="#lg4" y1="63.845" y2="210.477"/><linearGradient id="SVGID_00000008868031037795055020000011319275648191792310_" gradientUnits="userSpaceOnUse" x1="137.814" x2="141.956" xlink:href="#lg5" y1="11.699" y2="161.246"/><linearGradient id="SVGID_00000075162366551826997330000005623669610149445545_" gradientUnits="userSpaceOnUse" x1="265.395" x2="269.536" xlink:href="#lg5" y1="8.166" y2="157.713"/><linearGradient id="SVGID_00000158749704267817349480000001664369174107756475_" gradientUnits="userSpaceOnUse" x1="96.898" x2="253.654" xlink:href="#lg5" y1="30.154" y2="214.211"/><linearGradient id="SVGID_00000163074855304503036990000016567138171307719095_" gradientUnits="userSpaceOnUse" x1="263.315" x2="302.697" xlink:href="#lg5" y1="123.33" y2="123.33"/><linearGradient id="SVGID_00000048471585398640204610000009021569632596775832_" gradientUnits="userSpaceOnUse" x1="202.522" x2="202.522" xlink:href="#lg5" y1="165.255" y2="197.468"/><g><g><path d="m424.613 194.755h-25.6v-54.19c0-14.622-11.854-26.476-26.476-26.476h-278.313c-22.275 0-40.333 18.058-40.333 40.333 0 .696 0 .696 0 0v317.245c0 22.275 18.058 40.333 40.333 40.333h330.389c14.622 0 26.476-11.854 26.476-26.476v-264.293c.001-14.622-11.853-26.476-26.476-26.476z" fill="url(#SVGID_1_)"/><g><g><path d="m87.875 218.363h-17.225c-2.467 0-4.468-2-4.468-4.468 0-2.467 2-4.468 4.468-4.468h17.224c2.467 0 4.468 2 4.468 4.468s-2 4.468-4.467 4.468z" fill="url(#SVGID_00000038409680365732128850000005217221309527729578_)"/><path d="m126.37 218.363h-17.224c-2.467 0-4.468-2-4.468-4.468 0-2.467 2-4.468 4.468-4.468h17.224c2.467 0 4.468 2 4.468 4.468-.001 2.468-2.001 4.468-4.468 4.468z" fill="url(#SVGID_00000017489058281791478320000003880205695508369819_)"/><path d="m164.865 218.363h-17.225c-2.467 0-4.468-2-4.468-4.468 0-2.467 2-4.468 4.468-4.468h17.224c2.467 0 4.468 2 4.468 4.468s-2 4.468-4.467 4.468z" fill="url(#SVGID_00000110453926685312274660000013532212114343528580_)"/><path d="m203.36 218.363h-17.224c-2.467 0-4.468-2-4.468-4.468 0-2.467 2-4.468 4.468-4.468h17.224c2.467 0 4.468 2 4.468 4.468-.001 2.468-2.001 4.468-4.468 4.468z" fill="url(#SVGID_00000049188444285071947400000009250316821673347201_)"/><path d="m241.855 218.363h-17.224c-2.467 0-4.468-2-4.468-4.468 0-2.467 2-4.468 4.468-4.468h17.224c2.467 0 4.468 2 4.468 4.468s-2.001 4.468-4.468 4.468z" fill="url(#SVGID_00000176759694025954969910000002503129840403357591_)"/><path d="m280.35 218.363h-17.224c-2.467 0-4.468-2-4.468-4.468 0-2.467 2-4.468 4.468-4.468h17.224c2.467 0 4.467 2 4.467 4.468.001 2.468-1.999 4.468-4.467 4.468z" fill="url(#SVGID_00000004510792643416808210000015324291662312921728_)"/><path d="m318.845 218.363h-17.224c-2.467 0-4.468-2-4.468-4.468 0-2.467 2-4.468 4.468-4.468h17.224c2.467 0 4.468 2 4.468 4.468s-2 4.468-4.468 4.468z" fill="url(#SVGID_00000008138297680368893890000000487643223233965201_)"/><path d="m357.34 218.363h-17.224c-2.467 0-4.467-2-4.467-4.468 0-2.467 2-4.468 4.467-4.468h17.224c2.467 0 4.468 2 4.468 4.468s-2 4.468-4.468 4.468z" fill="url(#SVGID_00000142864631192301034290000000805094849366040505_)"/><path d="m395.836 218.363h-17.224c-2.467 0-4.467-2-4.467-4.468 0-2.467 2-4.468 4.467-4.468h17.224c2.467 0 4.468 2 4.468 4.468-.001 2.468-2.001 4.468-4.468 4.468z" fill="url(#SVGID_00000111913956325945099450000005762399360601387702_)"/><path d="m434.331 218.363h-17.224c-2.467 0-4.467-2-4.467-4.468 0-2.467 2-4.468 4.467-4.468h17.224c2.467 0 4.467 2 4.467 4.468s-2 4.468-4.467 4.468z" fill="url(#SVGID_00000163044017955897866370000006822140384958353824_)"/></g><g><path d="m87.875 492.416h-17.225c-2.467 0-4.468-2-4.468-4.468 0-2.467 2-4.467 4.468-4.467h17.224c2.467 0 4.468 2 4.468 4.467 0 2.468-2 4.468-4.467 4.468z" fill="url(#SVGID_00000039834109884303090400000002242397841244684431_)"/><path d="m126.37 492.416h-17.224c-2.467 0-4.468-2-4.468-4.468 0-2.467 2-4.467 4.468-4.467h17.224c2.467 0 4.468 2 4.468 4.467-.001 2.468-2.001 4.468-4.468 4.468z" fill="url(#SVGID_00000094585416985109668720000009325766912437179052_)"/><path d="m164.865 492.416h-17.225c-2.467 0-4.468-2-4.468-4.468 0-2.467 2-4.467 4.468-4.467h17.224c2.467 0 4.468 2 4.468 4.467 0 2.468-2 4.468-4.467 4.468z" fill="url(#SVGID_00000170982284602395849130000016365010783507055778_)"/><path d="m203.36 492.416h-17.224c-2.467 0-4.468-2-4.468-4.468 0-2.467 2-4.467 4.468-4.467h17.224c2.467 0 4.468 2 4.468 4.467-.001 2.468-2.001 4.468-4.468 4.468z" fill="url(#SVGID_00000060000818510234860270000006144388625212449443_)"/><path d="m241.855 492.416h-17.224c-2.467 0-4.468-2-4.468-4.468 0-2.467 2-4.467 4.468-4.467h17.224c2.467 0 4.468 2 4.468 4.467 0 2.468-2.001 4.468-4.468 4.468z" fill="url(#SVGID_00000057117686287454670220000011038726967972648379_)"/><path d="m280.35 492.416h-17.224c-2.467 0-4.468-2-4.468-4.468 0-2.467 2-4.467 4.468-4.467h17.224c2.467 0 4.467 2 4.467 4.467.001 2.468-1.999 4.468-4.467 4.468z" fill="url(#SVGID_00000101064503053360682210000002025810907677358987_)"/><path d="m318.845 492.416h-17.224c-2.467 0-4.468-2-4.468-4.468 0-2.467 2-4.467 4.468-4.467h17.224c2.467 0 4.468 2 4.468 4.467 0 2.468-2 4.468-4.468 4.468z" fill="url(#SVGID_00000158744697004527370540000012018934694204531130_)"/><path d="m357.34 492.416h-17.224c-2.467 0-4.467-2-4.467-4.468 0-2.467 2-4.467 4.467-4.467h17.224c2.467 0 4.468 2 4.468 4.467 0 2.468-2 4.468-4.468 4.468z" fill="url(#SVGID_00000066476166036521240090000000691275313237260472_)"/><path d="m395.836 492.416h-17.224c-2.467 0-4.467-2-4.467-4.468 0-2.467 2-4.467 4.467-4.467h17.224c2.467 0 4.468 2 4.468 4.467-.001 2.468-2.001 4.468-4.468 4.468z" fill="url(#SVGID_00000145025965002331605300000009435530380323179685_)"/><path d="m434.331 492.416h-17.224c-2.467 0-4.467-2-4.467-4.468 0-2.467 2-4.467 4.467-4.467h17.224c2.467 0 4.467 2 4.467 4.467 0 2.468-2 4.468-4.467 4.468z" fill="url(#SVGID_00000055675789589827737720000009872398028654908075_)"/></g></g><path d="m424.613 194.755h-25.6v-54.19c0-14.622-11.854-26.476-26.476-26.476h-173.182v397.911h225.258c14.622 0 26.476-11.854 26.476-26.476v-264.293c.001-14.622-11.853-26.476-26.476-26.476z" fill="url(#SVGID_00000096024093992222430420000017513190695187890060_)"/><path d="m399.013 194.755h-304.789c-22.275 0-40.333-18.058-40.333-40.333s18.058-40.333 40.333-40.333h278.312c14.623 0 26.476 11.854 26.476 26.476v54.19z" fill="url(#SVGID_00000132077388830423038660000013950027286991370891_)"/><path d="m399.011 140.567v54.182h-98.887v-80.659h72.41c14.626 0 26.477 11.851 26.477 26.477z" fill="url(#SVGID_00000137133151018577318140000013373393442827942278_)"/><path d="m399.011 140.567v54.182h-98.887v-80.659h72.41c14.626 0 26.477 11.851 26.477 26.477z" fill="url(#SVGID_00000171701293938593611610000004813549790478642049_)"/><path d="m53.891 373.87v97.796c0 22.275 18.058 40.333 40.333 40.333h330.389c14.622 0 26.476-11.854 26.476-26.476v-111.653z" fill="url(#SVGID_00000084500270718566137080000003357613595816211350_)"/><path d="m81.456 165.586c0 16.098 13.05 29.149 29.148 29.15l288.409.019v-54.19c0-1.408-.142-2.78-.354-4.128h-288.053c-16.099-.001-29.15 13.05-29.15 29.149z" fill="url(#SVGID_00000150102223172678205880000016252772289973775802_)"/></g><path d="m325.781 379.497 120.803 120.803c2.844-4.221 4.505-9.304 4.505-14.777v-106.026z" fill="url(#SVGID_00000174590163700016376540000017953207540930018739_)"/><g><path d="m447.372 392.412h-88.654c-26.768 0-48.468-21.7-48.468-48.468s21.7-48.468 48.468-48.468h88.654c5.93 0 10.737 4.807 10.737 10.737v75.464c0 5.928-4.807 10.735-10.737 10.735z" fill="url(#SVGID_00000036957627620720810790000009566676178449666688_)"/><path d="m312.742 328.605c-1.608 4.822-2.492 9.975-2.492 15.338 0 26.768 21.7 48.468 48.468 48.468h88.654c5.93 0 10.737-4.807 10.737-10.737v-53.07h-145.367z" fill="url(#SVGID_00000150792497260419428000000009515627254409573261_)"/><path d="m447.372 295.475h-70.862v96.937h70.862c5.93 0 10.737-4.807 10.737-10.737v-75.464c0-5.929-4.807-10.736-10.737-10.736z" fill="url(#SVGID_00000134222418601955516560000012859383756896240803_)"/></g><g><path d="m366.703 392.412h72.095l-66.492-66.492-36.047 36.047z" fill="url(#SVGID_00000088126588358129211140000007327489526774080681_)"/><circle cx="354.282" cy="343.944" fill="url(#SVGID_00000134248853530453880580000013987039770998416285_)" r="25.489"/><path d="m328.793 343.944c0 14.077 11.412 25.489 25.489 25.489s25.489-11.412 25.489-25.489c0-3.049-.537-5.972-1.519-8.682h-47.941c-.981 2.71-1.518 5.633-1.518 8.682z" fill="url(#SVGID_00000069393132497402871030000010757320859871291070_)"/><path d="m336.259 361.967c9.954 9.954 26.093 9.954 36.047 0s9.954-26.093 0-36.047c-2.156-2.156-4.602-3.843-7.213-5.065l-33.9 33.9c1.223 2.61 2.91 5.056 5.066 7.212z" fill="url(#SVGID_00000084507731772744779050000007853052313799852421_)"/></g><g><path d="m364.192 194.755h-188.244v-176.403c0-10.136 8.216-18.352 18.352-18.352h151.54c10.135 0 18.352 8.216 18.352 18.352z" fill="url(#SVGID_00000058548366725989704620000001256620599857615030_)"/><g><circle cx="207.315" cy="30.293" fill="url(#SVGID_00000009553388970682347460000016970502260301738626_)" r="14.955"/><circle cx="334.993" cy="30.293" fill="url(#SVGID_00000170991023111847644320000014420317051436933008_)" r="14.955"/></g><path d="m337.618 64.904v129.845h-135.086v-129.846c0-4.301 3.121-7.866 7.341-8.7 5.321-1.052 10.397-3.641 14.515-7.768 4.111-4.111 6.699-9.173 7.758-14.482.813-4.075 4.463-6.96 8.618-6.96h58.613c4.158 0 7.808 2.889 8.62 6.967 1.056 5.307 3.643 10.366 7.752 14.476 4.127 4.127 9.206 6.716 14.528 7.768 4.22.833 7.341 4.398 7.341 8.7z" fill="url(#SVGID_00000166660960005809254180000009200776794010321563_)"/><path d="m345.84 0h-78.937v194.755h97.289v-176.403c0-10.136-8.216-18.352-18.352-18.352z" fill="url(#SVGID_00000161592609447694853620000007635959381626670512_)"/><path d="m175.948 62.182h188.244v132.572h-188.244z" fill="url(#SVGID_00000096746423870257754870000008253443795787168698_)"/></g><path d="m292.114 194.755h72.078v-64.484l-72.078-72.078z" fill="url(#SVGID_00000016035728476257400010000009006884321922573456_)"/><g><path d="m296.644 194.755h-188.244v-124.498c0-10.135 8.216-18.352 18.352-18.352h151.541c10.135 0 18.352 8.216 18.352 18.352v124.498z" fill="url(#SVGID_00000006672759718546779340000010188839728325193868_)"/><g><circle cx="139.766" cy="82.199" fill="url(#SVGID_00000008868031037795055020000011319275648191792310_)" r="14.955"/><circle cx="267.445" cy="82.199" fill="url(#SVGID_00000075162366551826997330000005623669610149445545_)" r="14.955"/></g><path d="m270.07 116.809v77.939h-135.086v-77.939c0-4.301 3.121-7.866 7.341-8.7 5.321-1.052 10.397-3.641 14.515-7.768 4.111-4.111 6.699-9.173 7.758-14.482.813-4.075 4.463-6.96 8.618-6.96h58.613c4.158 0 7.808 2.889 8.619 6.967 1.056 5.307 3.643 10.366 7.752 14.476 4.127 4.127 9.206 6.716 14.528 7.768 4.221.833 7.342 4.398 7.342 8.699z" fill="url(#SVGID_00000158749704267817349480000001664369174107756475_)"/><path d="m278.292 51.906h-78.937v142.849h97.289v-124.498c0-10.135-8.217-18.351-18.352-18.351z" fill="url(#SVGID_00000163074855304503036990000016567138171307719095_)"/><path d="m108.4 114.088h188.244v80.667h-188.244z" fill="url(#SVGID_00000048471585398640204610000009021569632596775832_)"/></g></g><g/><g/><g/><g/><g/><g/><g/><g/><g/><g/><g/><g/><g/><g/><g/></svg>